<?xml version="1.0" encoding="UTF-8"?>
<!DOCTYPE svg PUBLIC "-//W3C//DTD SVG 1.1//EN" "http://www.w3.org/Graphics/SVG/1.1/DTD/svg11.dtd">
<svg version="1.2" width="210mm" height="297mm" viewBox="0 0 21000 29700" preserveAspectRatio="xMidYMid" fill-rule="evenodd" stroke-width="28.222" stroke-linejoin="round" xmlns="http://www.w3.org/2000/svg" xmlns:ooo="http://xml.openoffice.org/svg/export" xmlns:xlink="http://www.w3.org/1999/xlink" xmlns:presentation="http://sun.com/xmlns/staroffice/presentation" xmlns:smil="http://www.w3.org/2001/SMIL20/" xmlns:anim="urn:oasis:names:tc:opendocument:xmlns:animation:1.0" xml:space="preserve">
 <defs class="ClipPathGroup">
  <clipPath id="presentation_clip_path" clipPathUnits="userSpaceOnUse">
   <rect x="0" y="0" width="21000" height="29700"/>
  </clipPath>
  <clipPath id="presentation_clip_path_shrink" clipPathUnits="userSpaceOnUse">
   <rect x="21" y="29" width="20958" height="29641"/>
  </clipPath>
 </defs>
 <defs class="TextShapeIndex">
  <g ooo:slide="id1" ooo:id-list="id3 id4 id5 id6 id7 id8 id9 id10 id11 id12 id13 id14 id15 id16 id17 id18 id19 id20"/>
 </defs>
 <defs class="EmbeddedBulletChars">
  <g id="bullet-char-template-57356" transform="scale(0.00048828125,-0.00048828125)">
   <path d="M 580,1141 L 1163,571 580,0 -4,571 580,1141 Z"/>
  </g>
  <g id="bullet-char-template-57354" transform="scale(0.00048828125,-0.00048828125)">
   <path d="M 8,1128 L 1137,1128 1137,0 8,0 8,1128 Z"/>
  </g>
  <g id="bullet-char-template-10146" transform="scale(0.00048828125,-0.00048828125)">
   <path d="M 174,0 L 602,739 174,1481 1456,739 174,0 Z M 1358,739 L 309,1346 659,739 1358,739 Z"/>
  </g>
  <g id="bullet-char-template-10132" transform="scale(0.00048828125,-0.00048828125)">
   <path d="M 2015,739 L 1276,0 717,0 1260,543 174,543 174,936 1260,936 717,1481 1274,1481 2015,739 Z"/>
  </g>
  <g id="bullet-char-template-10007" transform="scale(0.00048828125,-0.00048828125)">
   <path d="M 0,-2 C -7,14 -16,27 -25,37 L 356,567 C 262,823 215,952 215,954 215,979 228,992 255,992 264,992 276,990 289,987 310,991 331,999 354,1012 L 381,999 492,748 772,1049 836,1024 860,1049 C 881,1039 901,1025 922,1006 886,937 835,863 770,784 769,783 710,716 594,584 L 774,223 C 774,196 753,168 711,139 L 727,119 C 717,90 699,76 672,76 641,76 570,178 457,381 L 164,-76 C 142,-110 111,-127 72,-127 30,-127 9,-110 8,-76 1,-67 -2,-52 -2,-32 -2,-23 -1,-13 0,-2 Z"/>
  </g>
  <g id="bullet-char-template-10004" transform="scale(0.00048828125,-0.00048828125)">
   <path d="M 285,-33 C 182,-33 111,30 74,156 52,228 41,333 41,471 41,549 55,616 82,672 116,743 169,778 240,778 293,778 328,747 346,684 L 369,508 C 377,444 397,411 428,410 L 1163,1116 C 1174,1127 1196,1133 1229,1133 1271,1133 1292,1118 1292,1087 L 1292,965 C 1292,929 1282,901 1262,881 L 442,47 C 390,-6 338,-33 285,-33 Z"/>
  </g>
  <g id="bullet-char-template-9679" transform="scale(0.00048828125,-0.00048828125)">
   <path d="M 813,0 C 632,0 489,54 383,161 276,268 223,411 223,592 223,773 276,916 383,1023 489,1130 632,1184 813,1184 992,1184 1136,1130 1245,1023 1353,916 1407,772 1407,592 1407,412 1353,268 1245,161 1136,54 992,0 813,0 Z"/>
  </g>
  <g id="bullet-char-template-8226" transform="scale(0.00048828125,-0.00048828125)">
   <path d="M 346,457 C 273,457 209,483 155,535 101,586 74,649 74,723 74,796 101,859 155,911 209,963 273,989 346,989 419,989 480,963 531,910 582,859 608,796 608,723 608,648 583,586 532,535 482,483 420,457 346,457 Z"/>
  </g>
  <g id="bullet-char-template-8211" transform="scale(0.00048828125,-0.00048828125)">
   <path d="M -4,459 L 1135,459 1135,606 -4,606 -4,459 Z"/>
  </g>
  <g id="bullet-char-template-61548" transform="scale(0.00048828125,-0.00048828125)">
   <path d="M 173,740 C 173,903 231,1043 346,1159 462,1274 601,1332 765,1332 928,1332 1067,1274 1183,1159 1299,1043 1357,903 1357,740 1357,577 1299,437 1183,322 1067,206 928,148 765,148 601,148 462,206 346,322 231,437 173,577 173,740 Z"/>
  </g>
 </defs>
 <g>
  <g id="id2" class="Master_Slide">
   <g id="bg-id2" class="Background"/>
   <g id="bo-id2" class="BackgroundObjects"/>
  </g>
 </g>
 <g class="SlideGroup">
  <g>
   <g id="container-id1">
    <g id="id1" class="Slide" clip-path="url(#presentation_clip_path)">
     <g class="Page">
      <g class="com.sun.star.drawing.PolyPolygonShape">
       <g id="id3">
        <rect class="BoundingBox" stroke="none" fill="none" x="2119" y="2255" width="11169" height="7262"/>
        <path fill="rgb(0,0,0)" stroke="none" d="M 2126,2361 L 2131,2362 4149,4706 4290,6816 4282,6818 4292,6859 4295,6903 4304,6903 4309,6921 5182,6690 6200,9516 6250,9498 6275,9489 6278,9492 6288,9484 6300,9480 6298,9475 13247,3677 13260,3675 13259,3667 13287,3643 13263,3615 13268,3570 13221,3564 13219,3562 13217,3564 2138,2256 2132,2309 2128,2340 2119,2348 2126,2357 2126,2361 Z"/>
       </g>
      </g>
      <g class="com.sun.star.drawing.PolyPolygonShape">
       <g id="id4">
        <rect class="BoundingBox" stroke="none" fill="none" x="4460" y="6008" width="687" height="764"/>
        <path fill="rgb(129,212,26)" stroke="none" d="M 4936,6008 L 5146,6590 4461,6771 4936,6008 Z"/>
       </g>
      </g>
      <g class="com.sun.star.drawing.PolyPolygonShape">
       <g id="id5">
        <rect class="BoundingBox" stroke="none" fill="none" x="5014" y="3721" width="8015" height="5649"/>
        <path fill="rgb(129,212,26)" stroke="none" d="M 13028,3721 L 6260,9369 5014,5911 13028,3721 Z"/>
       </g>
      </g>
      <g class="com.sun.star.drawing.PolyPolygonShape">
       <g id="id6">
        <rect class="BoundingBox" stroke="none" fill="none" x="4260" y="3776" width="8165" height="2914"/>
        <path fill="rgb(129,212,26)" stroke="none" d="M 4928,5825 L 4930,5830 4924,5827 4899,5867 4887,5872 4891,5881 4387,6689 4260,4766 12424,3776 4928,5825 Z"/>
       </g>
      </g>
      <g class="com.sun.star.drawing.PolyPolygonShape">
       <g id="id7">
        <rect class="BoundingBox" stroke="none" fill="none" x="2286" y="2380" width="10526" height="2284"/>
        <path fill="rgb(129,212,26)" stroke="none" d="M 12811,3623 L 4229,4663 4242,4651 2286,2380 12811,3623 Z"/>
       </g>
      </g>
      <g class="com.sun.star.drawing.PolyPolygonShape">
       <g id="id8">
        <rect class="BoundingBox" stroke="none" fill="none" x="4338" y="5942" width="517" height="782"/>
        <path fill="rgb(0,0,0)" fill-opacity="0.271" stroke="rgb(255,255,255)" stroke-opacity="0.271" d="M 4338,5984 L 4371,6723 4854,5942 4338,5984 Z"/>
       </g>
      </g>
      <g class="com.sun.star.drawing.PolyPolygonShape">
       <g id="id9">
        <rect class="BoundingBox" stroke="none" fill="none" x="5740" y="9568" width="11169" height="7261"/>
        <path fill="rgb(0,0,0)" stroke="none" d="M 16901,9673 L 16896,9674 14878,12018 14737,14128 14745,14130 14735,14171 14732,14215 14723,14215 14718,14233 13845,14002 12827,16828 12777,16810 12752,16801 12749,16804 12739,16796 12727,16792 12729,16787 5780,10989 5767,10987 5768,10979 5740,10955 5764,10927 5759,10882 5806,10876 5808,10874 5810,10876 16889,9568 16895,9621 16899,9652 16908,9660 16901,9669 16901,9673 Z"/>
       </g>
      </g>
      <g class="com.sun.star.drawing.PolyPolygonShape">
       <g id="id10">
        <rect class="BoundingBox" stroke="none" fill="none" x="13881" y="13320" width="686" height="764"/>
        <path fill="rgb(255,0,0)" stroke="none" d="M 14091,13320 L 13881,13902 14566,14083 14091,13320 Z"/>
       </g>
      </g>
      <g class="com.sun.star.drawing.PolyPolygonShape">
       <g id="id11">
        <rect class="BoundingBox" stroke="none" fill="none" x="5999" y="11033" width="8016" height="5649"/>
        <path fill="rgb(255,0,0)" stroke="none" d="M 5999,11033 L 12767,16681 14013,13223 5999,11033 Z"/>
       </g>
      </g>
      <g class="com.sun.star.drawing.PolyPolygonShape">
       <g id="id12">
        <rect class="BoundingBox" stroke="none" fill="none" x="6603" y="11088" width="8165" height="2915"/>
        <path fill="rgb(255,0,0)" stroke="none" d="M 14099,13137 L 14097,13142 14103,13139 14128,13179 14140,13184 14136,13193 14640,14001 14767,12078 6603,11088 14099,13137 Z"/>
       </g>
      </g>
      <g class="com.sun.star.drawing.PolyPolygonShape">
       <g id="id13">
        <rect class="BoundingBox" stroke="none" fill="none" x="6216" y="9692" width="10526" height="2284"/>
        <path fill="rgb(255,0,0)" stroke="none" d="M 6216,10935 L 14798,11975 14785,11963 16741,9692 6216,10935 Z"/>
       </g>
      </g>
      <g class="com.sun.star.drawing.PolyPolygonShape">
       <g id="id14">
        <rect class="BoundingBox" stroke="none" fill="none" x="14172" y="13253" width="518" height="783"/>
        <path fill="rgb(0,0,0)" fill-opacity="0.271" stroke="rgb(255,255,255)" stroke-opacity="0.271" d="M 14689,13296 L 14656,14035 14173,13254 14689,13296 Z"/>
       </g>
      </g>
      <g class="com.sun.star.drawing.PolyPolygonShape">
       <g id="id15">
        <rect class="BoundingBox" stroke="none" fill="none" x="3094" y="17120" width="11169" height="7262"/>
        <path fill="rgb(0,0,0)" stroke="none" d="M 3101,17226 L 3106,17227 5124,19571 5265,21681 5257,21683 5267,21724 5270,21768 5279,21768 5284,21786 6157,21555 7175,24381 7225,24363 7250,24354 7253,24357 7263,24349 7275,24345 7273,24340 14222,18542 14235,18540 14234,18532 14262,18508 14238,18480 14243,18435 14196,18429 14194,18427 14192,18429 3113,17121 3107,17174 3103,17205 3094,17213 3101,17222 3101,17226 Z"/>
       </g>
      </g>
      <g class="com.sun.star.drawing.PolyPolygonShape">
       <g id="id16">
        <rect class="BoundingBox" stroke="none" fill="none" x="5435" y="20873" width="687" height="764"/>
        <path fill="rgb(42,96,153)" stroke="none" d="M 5911,20873 L 6121,21455 5436,21636 5911,20873 Z"/>
       </g>
      </g>
      <g class="com.sun.star.drawing.PolyPolygonShape">
       <g id="id17">
        <rect class="BoundingBox" stroke="none" fill="none" x="5989" y="18586" width="8015" height="5649"/>
        <path fill="rgb(42,96,153)" stroke="none" d="M 14003,18586 L 7235,24234 5989,20776 14003,18586 Z"/>
       </g>
      </g>
      <g class="com.sun.star.drawing.PolyPolygonShape">
       <g id="id18">
        <rect class="BoundingBox" stroke="none" fill="none" x="5234" y="18641" width="8166" height="2914"/>
        <path fill="rgb(42,96,153)" stroke="none" d="M 5903,20690 L 5905,20695 5899,20692 5874,20732 5862,20737 5866,20746 5362,21554 5235,19631 13399,18641 5903,20690 Z"/>
       </g>
      </g>
      <g class="com.sun.star.drawing.PolyPolygonShape">
       <g id="id19">
        <rect class="BoundingBox" stroke="none" fill="none" x="3260" y="17245" width="10527" height="2284"/>
        <path fill="rgb(42,96,153)" stroke="none" d="M 13786,18488 L 5204,19528 5217,19516 3261,17245 13786,18488 Z"/>
       </g>
      </g>
      <g class="com.sun.star.drawing.PolyPolygonShape">
       <g id="id20">
        <rect class="BoundingBox" stroke="none" fill="none" x="5313" y="20807" width="517" height="782"/>
        <path fill="rgb(0,0,0)" fill-opacity="0.271" stroke="rgb(255,255,255)" stroke-opacity="0.271" d="M 5313,20849 L 5346,21588 5829,20807 5313,20849 Z"/>
       </g>
      </g>
     </g>
    </g>
   </g>
  </g>
 </g>
</svg>