<svg width="1005.0000000000001" height="1382" xmlns="http://www.w3.org/2000/svg">

 <g>
  <title>Layer 1</title>
  <path id="imagebot_2" d="M679.182,1230.36 C924.211,1249.6 920.362,1126.44 920.362,1126.44 C1083.29,1023.81 960.131,824.968 960.131,824.968 C984.506,596.616 939.605,509.381 939.605,509.381 C960.131,328.495 904.967,282.312 904.967,282.312 C848.521,65.5065 763.851,61.6578 763.851,61.6578 C751.023,38.5661 718.951,16.7572 692.01,7.77708 C665.07,-1.20303 668.919,57.8092 668.919,57.8092 C543.197,-12.7489 536.783,7.77708 536.783,7.77708 C552.177,20.6058 575.269,102.71 575.269,102.71 C512.408,160.439 518.823,300.272 518.823,300.272 C558.592,351.587 581.683,352.87 581.683,352.87 S552.177,437.54 566.289,492.703 C566.289,492.703 296.885,895.525 459.81,1179.04 C459.81,1179.04 300.734,1329.14 146.789,1275.26 C-7.15564,1221.38 146.789,959.669 146.789,959.669 S163.723,898.348 103.171,941.709 C3.10736,1013.55 -64.8849,1354.28 97.2703,1376.09 C548.072,1436.9 592.203,1223.43 679.182,1230.36 z"/>
  <path d="M397.13,833.599 L397.13,833.599 C421.761,638.47 520.662,490.25 618.03,502.541 L618.03,502.541 C664.787,508.443 704.932,551.328 729.63,621.761 C754.329,692.193 761.56,784.405 749.731,878.109 L749.731,878.109 C725.1,1073.24 626.199,1221.46 528.831,1209.17 L528.831,1209.17 C431.463,1196.88 372.498,1028.73 397.13,833.599 z" id="imagebot_3" stroke-linecap="round" stroke-linejoin="round" stroke-width="3" stroke="#000000" fill="#000000"/>
  <path transform="rotate(353.944, 817.59, 870.547) matrix(1, 0, 0, 1, 21.3948, 20.9791)" id="imagebot_4" d="M608.586,828.018 L608.586,828.018 C634.8,639.085 740.058,495.571 843.685,507.471 L843.685,507.471 C893.448,513.186 936.173,554.709 962.459,622.906 C988.745,691.102 996.441,780.386 983.852,871.115 L983.852,871.115 C957.637,1060.05 852.379,1203.56 748.752,1191.66 L748.752,1191.66 C645.126,1179.76 582.37,1016.95 608.586,828.018 z" stroke-linecap="round" stroke-linejoin="round" stroke-width="3" stroke="#000000" fill="#000000"/>
 </g>
</svg>