<svg width="100" height="100" viewBox="0 0 100 100" fill="none" xmlns="http://www.w3.org/2000/svg">
<circle cx="50" cy="50" r="50" fill="#D9EEE1"/>
<g clip-path="url(#clip0_1166_14847)">
<path d="M18.8776 38.8506H29.8929C33.126 38.8778 35.4689 39.8099 36.9214 41.6455C38.3739 43.4812 38.8532 45.9884 38.36 49.1672C38.1684 50.6198 37.7434 52.0444 37.0858 53.4418C36.4553 54.8393 35.579 56.0995 34.4553 57.2232C33.0849 58.6478 31.6192 59.5521 30.0573 59.936C28.4955 60.3198 26.8785 60.5114 25.2073 60.5114H20.2751L18.7132 68.3208H13L18.8776 38.8506V38.8506ZM23.6865 43.5362L21.2204 55.8668C21.3848 55.894 21.5492 55.908 21.7136 55.908C21.9052 55.908 22.0975 55.908 22.2891 55.908C24.9196 55.9351 27.112 55.6753 28.8654 55.127C30.6188 54.5516 31.7976 52.5515 32.4002 49.1261C32.8934 46.249 32.4002 44.5909 30.9205 44.1528C29.468 43.7146 27.6463 43.5091 25.4539 43.5362C25.1251 43.5634 24.8102 43.5773 24.5086 43.5773C24.2348 43.5773 23.9471 43.5773 23.6454 43.5773L23.6865 43.5362" fill="#282A35"/>
<path d="M44.868 31.0001H50.5401L48.9371 38.8506H54.0338C56.8287 38.9057 58.911 39.4811 60.2813 40.5769C61.6788 41.6727 62.0898 43.7557 61.5144 46.8244L58.7605 60.5114H53.0062L55.6368 47.4409C55.9105 46.0706 55.8283 45.0981 55.3902 44.5227C54.952 43.9473 54.0066 43.6595 52.5541 43.6595L47.9918 43.6184L44.6214 60.5114H38.9493L44.868 31.0001Z" fill="#282A35"/>
<path d="M67.6052 38.8506H78.6206C81.8537 38.8778 84.1965 39.8099 85.649 41.6455C87.1016 43.4812 87.5808 45.9884 87.0876 49.1672C86.8961 50.6198 86.4711 52.0444 85.8134 53.4418C85.183 54.8393 84.3066 56.0995 83.1829 57.2232C81.8126 58.6478 80.3469 59.5521 78.785 59.936C77.2231 60.3198 75.6062 60.5114 73.9349 60.5114H69.0027L67.4408 68.3208H61.7276L67.6052 38.8506V38.8506ZM72.4142 43.5362L69.948 55.8668C70.1125 55.894 70.2769 55.908 70.4413 55.908C70.6328 55.908 70.8251 55.908 71.0167 55.908C73.6472 55.9351 75.8396 55.6753 77.593 55.127C79.3465 54.5516 80.5252 52.5515 81.1278 49.1261C81.621 46.249 81.1278 44.5909 79.6481 44.1528C78.1956 43.7146 76.3739 43.5091 74.1816 43.5362C73.8527 43.5634 73.5379 43.5773 73.2362 43.5773C72.9625 43.5773 72.6747 43.5773 72.3731 43.5773L72.4142 43.5362" fill="#282A35"/>
</g>
<defs>
<clipPath id="clip0_1166_14847">
<rect width="74.449" height="38" fill="white" transform="translate(13 31.0001)"/>
</clipPath>
</defs>
</svg>
